#!OML:ASF X:\für Bonn\!DataBase\2005_08_12_Daniel\c3d\Daniel.ASF
:FULLY-SPECIFIED
:DEGREES
94
root -3.28452 6.002 -2.97166 304.41 -81.355 -339.027
lowerback 56.9129 -3.35694 0.581473
upperback 7.84858 -6.39359 -3.67961
thorax -12.9992 -3.52947 -1.1079
lowerneck 8.9931 2.06065 -1.16853
upperneck -2.7113 2.56025 -0.671347
head -2.42067 1.30269 -0.135919
rclavicle 1.92821e-014 3.97569e-014
rhumerus 68.7759 3.46541 -82.0682
rradius 10.9216
rwrist 46.3172
rhand -28.1201 17.1639
rfingers 7.12502
rthumb -1.50193 -12.8106
lclavicle 1.92821e-014 3.97569e-014
lhumerus 69.6935 -2.29796 85.5245
lradius 8.20312
lwrist -54.5666
lhand -20.7112 -2.05438
lfingers 7.12502
lthumb 5.65314 27.8502
rfemur 177.121 41.1553 31.0841
rtibia 197.809
rfoot -110.43 108.838
rtoes -4.51919
lfemur -49.161 66.9528 53.9385
ltibia 156.656
lfoot -1.63007 -73.7538
ltoes 5.44486
95
root -3.26414 6.07367 -2.97198 304.694 -81.3047 -338.894
lowerback 56.9413 -3.40358 0.601667
upperback 7.75704 -6.42323 -3.67965
thorax -13.1115 -3.53262 -1.09898
lowerneck 9.38273 2.08517 -1.29826
upperneck -3.04914 2.57143 -0.634063
head -2.60984 1.31117 -0.10979
rclavicle 2.5842e-014 1.59028e-014
rhumerus 68.8378 3.52552 -81.8748
rradius 10.644
rwrist 46.1312
rhand -28.5659 17.1655
rfingers 7.12502
rthumb -1.93244 -12.8055
lclavicle 2.5842e-014 1.59028e-014
lhumerus 69.5013 -2.26808 85.5449
lradius 8.41817
lwrist -54.4979
lhand -20.6375 -2.18655
lfingers 7.12502
lthumb 5.72431 27.7161
rfemur 4.71306 -41.2707 -148.739
rtibia 161.959
rfoot -104.989 70.1246
rtoes -5.17895
lfemur -51.2723 66.5184 50.2732
ltibia 156.276
lfoot -4.41754 -72.2906
ltoes 4.87438
96
root -3.24161 6.16125 -2.97291 304.962 -81.2588 -338.736
lowerback 57.0429 -3.45676 0.624992
upperback 7.63422 -6.46099 -3.68902
thorax -13.2679 -3.53723 -1.0959
lowerneck 9.75514 2.1068 -1.40477
upperneck -3.40727 2.58124 -0.594274
head -2.80403 1.31889 -0.0865958
rclavicle 1.43125e-014 1.07344e-014
rhumerus 68.9233 3.58631 -81.7267
rradius 10.3489
rwrist 45.9087
rhand -29.0069 17.1151
rfingers 7.12502
rthumb -2.35837 -12.8516
lclavicle 1.43125e-014 1.07344e-014
lhumerus 69.4371 -2.23537 85.5446
lradius 8.40246
lwrist -54.5818
lhand -20.6932 -2.20802
lfingers 7.12502
lthumb 5.67059 27.6961
rfemur 6.80072 -41.3948 -148.466
rtibia 161.613
rfoot -99.6857 68.8158
rtoes -5.97465
lfemur -53.3996 65.8453 46.374
ltibia 155.793
lfoot -6.29627 -70.5851
ltoes 4.46083
97
root -3.21634 6.26531 -2.97414 305.269 -81.2172 -338.518
lowerback 57.1032 -3.5229 0.659522
upperback 7.48518 -6.50356 -3.70924
thorax -13.4551 -3.54068 -1.10687
lowerneck 10.0522 2.138 -1.55772
upperneck -3.68612 2.60152 -0.512194
head -2.95977 1.33031 -0.0404484
rclavicle -3.53837e-014 -1.07344e-014
rhumerus 68.9809 3.6522 -81.5909
rradius 10.1298
rwrist 45.7132
rhand -29.298 17.0072
rfingers 7.12502
rthumb -2.63947 -12.9562
lclavicle -3.53837e-014 -1.07344e-014
lhumerus 69.4275 -2.21408 85.5374
lradius 8.30109
lwrist -54.7915
lhand -20.7581 -2.10554
lfingers 7.12502
lthumb 5.60789 27.8003
rfemur 9.22634 -41.6762 -148.138
rtibia 161.18
rfoot -94.3543 67.3732
rtoes -6.6146
lfemur -55.6532 65.033 42.0125
ltibia 155.265
lfoot -9.37167 -68.3781
ltoes 3.65915
98
root -3.19143 6.3422 -2.97375 305.499 -81.1668 -338.18
lowerback 57.171 -3.57862 0.675632
upperback 7.31876 -6.54251 -3.72507
thorax -13.662 -3.54082 -1.10586
lowerneck 10.3147 2.16149 -1.71249
upperneck -3.95353 2.61021 -0.447836
head -3.10577 1.33669 0.00171869
rclavicle 3.95581e-014 -3.97569e-016
rhumerus 69.0201 3.62557 -81.6821
rradius 9.99513
rwrist 45.7876
rhand -29.4056 16.8938
rfingers 7.12502
rthumb -2.74346 -13.0683
lclavicle 3.95581e-014 -3.97569e-016
lhumerus 69.498 -2.19207 85.5391
lradius 8.11617
lwrist -55.183
lhand -20.7906 -1.82109
lfingers 7.12502
lthumb 5.57651 28.0855
rfemur 11.0538 -42.3226 -147.611
rtibia 160.928
rfoot -89.5806 66.3388
rtoes -7.20435
lfemur -58.9492 63.8242 36.8979
ltibia 154.95
lfoot -11.3375 -65.8634
ltoes 2.81505
